<?xml version="1.0" encoding="UTF-8" standalone="no"?>
<!-- Created with PhotoLine 23.02 (www.pl32.com) -->
<!DOCTYPE svg PUBLIC "-//W3C//DTD SVG 1.1//EN" "http://www.w3.org/Graphics/SVG/1.1/DTD/svg11.dtd">
<svg viewBox="0 0 65 65" version="1.1" xmlns="http://www.w3.org/2000/svg" xmlns:xlink="http://www.w3.org/1999/xlink">
  <g id="layer1" transform="matrix(1 0 0 1 0 -987.362121)">
    <g id="path3336">
      <path stroke-width="0.66" fill="none" stroke="#000000" d="M0.94 1019.86 C0.94 1002.53 15.14 988.46 32.62 988.46 C50.11 988.46 64.31 1002.53 64.31 1019.86 C64.31 1037.18 50.11 1051.25 32.62 1051.25 C15.14 1051.25 0.94 1037.18 0.94 1019.86 Z"/>
    </g>
    <g id="path3338">
      <path stroke-width="0.17" fill="#ffffff" fill-rule="evenodd" stroke="#000000" d="M15.62 1018.95 C15.62 1010.22 23.09 1003.13 32.27 1003.13 C41.46 1003.13 48.92 1010.22 48.92 1018.95 C48.92 1027.69 41.46 1034.78 32.27 1034.78 C23.09 1034.78 15.62 1027.69 15.62 1018.95 Z"/>
    </g>
    <g id="tspan3344" transform="matrix(1.013154 0 0 0.987017 15.754345 1006.023925)">
      <text kerning="0" font-family=".AppleSystemUIFont" font-weight="700" font-size="22.1">
        <tspan x="0" y="21.37">15</tspan>
      </text>
    </g>
    <g id="a4153" transform="matrix(0.658461 0 0 0.654771 -0.609232 987.251831)">
      <g id="path3349">
        <path stroke-width="1.01" fill="#0000ff" stroke="#000000" d="M15.88 16.46 L85.3 16.46"/>
      </g>
    </g>
    <g id="path3351">
      <path stroke-width="0.66" fill="none" stroke="#000000" d="M8.17 1039.75 L57.23 1039.5"/>
    </g>
    <g id="path4158">
      <path fill="#800000" d="M7.18 1038.32 C4.18 1034.26 2.16 1029.39 1.38 1024.3 C1.06 1022.17 1.05 1017.46 1.38 1015.42 C2.37 1009.18 4.88 1003.82 8.96 999.2 L9.7 998.37 L32.7 998.43 L55.7 998.5 L56.74 999.72 C59.5 1002.96 61.77 1007.16 62.97 1011.31 C64.84 1017.71 64.48 1025.04 62.01 1031.26 C61.11 1033.51 59.39 1036.58 58.05 1038.33 L57.43 1039.13 L39.87 1039.19 C30.22 1039.23 19.09 1039.29 15.15 1039.33 L7.98 1039.4 L7.18 1038.32 Z M34.9 1034.71 C36.75 1034.43 38.29 1033.94 40 1033.1 C41.82 1032.2 42.97 1031.38 44.4 1029.96 C47.43 1026.95 49.01 1023.19 49.02 1018.97 C49.02 1014.84 47.57 1011.22 44.69 1008.24 C41.07 1004.5 36.14 1002.66 30.84 1003.07 C29.29 1003.19 27.2 1003.66 25.87 1004.18 C21.37 1005.95 17.74 1009.72 16.26 1014.15 C15.24 1017.21 15.29 1021.08 16.39 1024.14 C17.95 1028.44 21.45 1031.97 25.89 1033.72 C26.94 1034.14 28.64 1034.58 29.81 1034.75 C31.04 1034.93 33.57 1034.91 34.9 1034.71 Z"/>
    </g>
    <g id="path3454" transform="matrix(1 0 0 1 0 987.362121)">
      <path fill="#ffffff" d="M30.11 63.31 C24.74 62.87 19.85 61.2 15.45 58.3 C13.32 56.9 10.1 54.18 9.52 53.31 L9.16 52.76 L32.65 52.68 C45.57 52.63 56.18 52.62 56.22 52.64 C56.41 52.74 54.13 55 52.54 56.28 C46.04 61.51 38.18 63.97 30.11 63.31 Z"/>
    </g>
    <g id="path3456" transform="matrix(1 0 0 1 0 987.362121)">
      <path fill="#ffffff" d="M12.09 9.22 C15.5 6.08 21.02 3.33 26.23 2.18 C28.51 1.67 34.29 1.47 36.74 1.82 C43.13 2.73 48.52 5.19 53.44 9.44 L54.46 10.32 L32.69 10.31 L10.92 10.3 L12.09 9.22 Z"/>
    </g>
  </g>
</svg>
