<?xml version="1.0" encoding="UTF-8" standalone="no"?>
<!-- Created with PhotoLine 23.02 (www.pl32.com) -->
<!DOCTYPE svg PUBLIC "-//W3C//DTD SVG 1.1//EN" "http://www.w3.org/Graphics/SVG/1.1/DTD/svg11.dtd">
<svg viewBox="0 0 65 65" version="1.1" xmlns="http://www.w3.org/2000/svg" xmlns:xlink="http://www.w3.org/1999/xlink">
  <g id="layer1" transform="matrix(1 0 0 1 0 -987.362121)">
    <g id="path3336">
      <path stroke-width="0.14" fill="#008000" fill-rule="evenodd" stroke="#000000" d="M0.6 1019.86 C0.6 1002.22 14.9 987.89 32.51 987.89 C50.11 987.89 64.41 1002.22 64.41 1019.86 C64.41 1037.49 50.11 1051.82 32.51 1051.82 C14.9 1051.82 0.6 1037.49 0.6 1019.86 Z"/>
    </g>
    <g id="path3338">
      <path stroke-width="0.14" fill="#ffffff" fill-rule="evenodd" stroke="#000000" d="M18.36 1019.53 C18.36 1011.89 24.46 1005.69 31.96 1005.69 C39.46 1005.69 45.55 1011.89 45.55 1019.53 C45.55 1027.16 39.46 1033.37 31.96 1033.37 C24.46 1033.37 18.36 1027.16 18.36 1019.53 Z"/>
    </g>
    <g id="tspan3344" transform="matrix(1.007507 0 0 0.992549 23.710783 1005.641601)">
      <text kerning="0" font-family=".AppleSystemUIFont" font-weight="700" font-size="22.38">
        <tspan x="0" y="21.64">6</tspan>
      </text>
    </g>
  </g>
</svg>
