<?xml version="1.0" encoding="UTF-8" standalone="no"?>
<!-- Created with PhotoLine 23.02 (www.pl32.com) -->
<!DOCTYPE svg PUBLIC "-//W3C//DTD SVG 1.1//EN" "http://www.w3.org/Graphics/SVG/1.1/DTD/svg11.dtd">
<svg viewBox="0 0 65 65" version="1.1" xmlns="http://www.w3.org/2000/svg" xmlns:xlink="http://www.w3.org/1999/xlink">
  <g id="layer1" transform="matrix(1 0 0 1 0 -987.362121)">
    <g id="path3336">
      <path stroke-width="0.66" fill="none" stroke="#000000" d="M0.7 1019.86 C0.7 1002.53 14.96 988.46 32.51 988.46 C50.05 988.46 64.31 1002.53 64.31 1019.86 C64.31 1037.18 50.05 1051.25 32.51 1051.25 C14.96 1051.25 0.7 1037.18 0.7 1019.86 Z"/>
    </g>
    <g id="path3338">
      <path stroke-width="0.17" fill="#ffffff" fill-rule="evenodd" stroke="#000000" d="M15.44 1018.95 C15.44 1010.22 22.93 1003.13 32.15 1003.13 C41.38 1003.13 48.87 1010.22 48.87 1018.95 C48.87 1027.69 41.38 1034.78 32.15 1034.78 C22.93 1034.78 15.44 1027.69 15.44 1018.95 Z"/>
    </g>
    <g id="tspan3344" transform="matrix(1.015035 0 0 0.985187 15.574184 1006.024169)">
      <text kerning="0" font-family=".AppleSystemUIFont" font-weight="700" font-size="22.14">
        <tspan x="0" y="21.41">11</tspan>
      </text>
    </g>
    <g id="a4153" transform="matrix(0.660896 0 0 0.654758 -0.849909 987.252441)">
      <g id="path3349">
        <path stroke-width="1.01" fill="#0000ff" stroke="#000000" d="M15.88 16.46 L85.3 16.46"/>
      </g>
    </g>
    <g id="path3351">
      <path stroke-width="0.66" fill="none" stroke="#000000" d="M7.96 1039.75 L57.21 1039.5"/>
    </g>
    <g id="path4158">
      <path fill="#ff0000" d="M6.97 1038.32 C3.95 1034.26 1.93 1029.39 1.15 1024.3 C0.82 1022.17 0.82 1017.46 1.14 1015.42 C2.14 1009.18 4.65 1003.82 8.75 999.2 L9.49 998.37 L32.58 998.43 L55.67 998.5 L56.71 999.72 C59.49 1002.96 61.76 1007.17 62.97 1011.31 C64.84 1017.71 64.48 1025.04 62 1031.26 C61.1 1033.51 59.37 1036.58 58.02 1038.33 L57.41 1039.12 L39.78 1039.19 C30.09 1039.23 18.92 1039.29 14.97 1039.33 L7.77 1039.4 L6.97 1038.32 Z M34.79 1034.71 C36.65 1034.43 38.19 1033.94 39.91 1033.1 C41.74 1032.2 42.89 1031.38 44.33 1029.96 C47.37 1026.95 48.96 1023.19 48.96 1018.97 C48.97 1014.84 47.5 1011.22 44.61 1008.24 C40.99 1004.5 36.04 1002.66 30.71 1003.07 C29.16 1003.19 27.06 1003.66 25.72 1004.18 C21.21 1005.95 17.57 1009.72 16.08 1014.15 C15.05 1017.21 15.11 1021.08 16.22 1024.14 C17.77 1028.44 21.29 1031.97 25.75 1033.72 C26.8 1034.14 28.5 1034.58 29.68 1034.75 C30.92 1034.93 33.46 1034.91 34.79 1034.71 Z"/>
    </g>
    <g id="path3384" transform="matrix(1 0 0 1 0 987.362121)">
      <path fill="#ffffff" d="M11.86 9.23 C15.78 5.69 21.73 2.91 27.49 1.95 C30.4 1.47 36.28 1.58 38.95 2.17 C44.2 3.35 49.75 6.1 53.07 9.19 L54.26 10.3 L32.47 10.3 L10.68 10.3 L11.86 9.23 L11.86 9.23 Z"/>
    </g>
    <g id="path3386" transform="matrix(1 0 0 1 0 987.362121)">
      <path fill="#ffffff" d="M29.88 63.29 C22.63 62.71 16.04 59.76 10.92 54.79 L8.8 52.73 L28.82 52.73 C39.83 52.72 50.53 52.65 52.59 52.56 L56.35 52.41 L55.8 53.17 C55.04 54.24 52.02 56.79 49.72 58.3 C43.92 62.11 37 63.85 29.88 63.29 Z"/>
    </g>
  </g>
</svg>
