<?xml version="1.0" encoding="UTF-8" standalone="no"?>
<!-- Created with PhotoLine 23.02 (www.pl32.com) -->
<!DOCTYPE svg PUBLIC "-//W3C//DTD SVG 1.1//EN" "http://www.w3.org/Graphics/SVG/1.1/DTD/svg11.dtd">
<svg sion="1.1" xmlns="http://www.w3.org/2000/svg" xmlns:xlink="http://www.w3.org/1999/xlink">
  <g id="layer1" transform="matrix(1 0 0 1 0 -987.362121)">
    <g id="path3336">
      <path stroke-width="0.14" fill="#ffd42a" fill-rule="evenodd" stroke="#000000" d="M1.61 1019.91 C1.61 1002.73 15.54 988.77 32.69 988.77 C49.84 988.77 63.77 1002.73 63.77 1019.91 C63.77 1037.1 49.84 1051.05 32.69 1051.05 C15.54 1051.05 1.61 1037.1 1.61 1019.91 Z"/>
    </g>
    <g id="path3338">
      <path stroke-width="0.14" fill="#ffffff" fill-rule="evenodd" stroke="#000000" d="M18.92 1019.59 C18.92 1012.15 24.85 1006.11 32.16 1006.11 C39.47 1006.11 45.4 1012.15 45.4 1019.59 C45.4 1027.03 39.47 1033.07 32.16 1033.07 C24.85 1033.07 18.92 1027.03 18.92 1019.59 Z"/>
    </g>
    <g id="tspan3344" transform="matrix(1.007481 0 0 0.992575 25.137268 1006.572753)">
      <text kerning="0" font-family=".AppleSystemUIFont" font-weight="700" font-size="21.8">
        <tspan x="0" y="21.08">1</tspan>
      </text>
    </g>
  </g>
</svg>
