<?xml version="1.0" encoding="UTF-8" standalone="no"?>
<!-- Created with PhotoLine 23.02 (www.pl32.com) -->
<!DOCTYPE svg PUBLIC "-//W3C//DTD SVG 1.1//EN" "http://www.w3.org/Graphics/SVG/1.1/DTD/svg11.dtd">
<svg viewBox="0 0 65 65" version="1.1" xmlns="http://www.w3.org/2000/svg" xmlns:xlink="http://www.w3.org/1999/xlink">
  <g id="layer1" transform="matrix(1 0 0 1 0 -987.362121)">
    <g id="path3336-1">
      <path stroke-width="0.14" fill="#ff0000" fill-rule="evenodd" stroke="#000000" d="M0.84 1019.74 C0.84 1002.3 15.03 988.13 32.51 988.13 C49.98 988.13 64.17 1002.3 64.17 1019.74 C64.17 1037.18 49.98 1051.35 32.51 1051.35 C15.03 1051.35 0.84 1037.18 0.84 1019.74 Z"/>
    </g>
    <g id="path3338-5">
      <path stroke-width="0.14" fill="#ffffff" fill-rule="evenodd" stroke="#000000" d="M18.47 1019.41 C18.47 1011.86 24.52 1005.72 31.96 1005.72 C39.41 1005.72 45.46 1011.86 45.46 1019.41 C45.46 1026.96 39.41 1033.1 31.96 1033.1 C24.52 1033.1 18.47 1026.96 18.47 1019.41 Z"/>
    </g>
    <g id="tspan3344-4" transform="matrix(1.009375 0 0 0.990712 24.807872 1006.197998)">
      <text kerning="0" font-family=".AppleSystemUIFont" font-weight="700" font-size="22.17">
        <tspan x="0" y="21.44">3</tspan>
      </text>
    </g>
  </g>
</svg>
