<?xml version="1.0" encoding="UTF-8" standalone="no"?>
<!-- Created with PhotoLine 23.02 (www.pl32.com) -->
<!DOCTYPE svg PUBLIC "-//W3C//DTD SVG 1.1//EN" "http://www.w3.org/Graphics/SVG/1.1/DTD/svg11.dtd">
<svg viewBox="0 0 65 65" version="1.1" xmlns="http://www.w3.org/2000/svg" xmlns:xlink="http://www.w3.org/1999/xlink">
  <g id="layer1" transform="matrix(1 0 0 1 0 -987.362121)">
    <g id="path3336">
      <path stroke-width="0.14" fill="#800080" fill-rule="evenodd" stroke="#000000" d="M0.84 1019.86 C0.84 1002.35 15.03 988.13 32.51 988.13 C49.98 988.13 64.17 1002.35 64.17 1019.86 C64.17 1037.36 49.98 1051.59 32.51 1051.59 C15.03 1051.59 0.84 1037.36 0.84 1019.86 Z"/>
    </g>
    <g id="path3338">
      <path stroke-width="0.14" fill="#ffffff" fill-rule="evenodd" stroke="#000000" d="M18.47 1019.53 C18.47 1011.95 24.52 1005.79 31.96 1005.79 C39.41 1005.79 45.46 1011.95 45.46 1019.53 C45.46 1027.11 39.41 1033.27 31.96 1033.27 C24.52 1033.27 18.47 1027.11 18.47 1019.53 Z"/>
    </g>
    <g id="tspan3344" transform="matrix(1.0075 0 0 0.992556 23.775583 1005.746276)">
      <text kerning="0" font-family=".AppleSystemUIFont" font-weight="700" font-size="22.21">
        <tspan x="0" y="21.48">4</tspan>
      </text>
    </g>
  </g>
</svg>
