<?xml version="1.0" encoding="UTF-8" standalone="no"?>
<!-- Created with PhotoLine 23.02 (www.pl32.com) -->
<!DOCTYPE svg PUBLIC "-//W3C//DTD SVG 1.1//EN" "http://www.w3.org/Graphics/SVG/1.1/DTD/svg11.dtd">
<svg viewBox="0 0 65 65" version="1.1" xmlns="http://www.w3.org/2000/svg" xmlns:xlink="http://www.w3.org/1999/xlink">
  <g id="layer1" transform="matrix(1 0 0 1 0 -987.362121)">
    <g id="path3336">
      <path stroke-width="0.14" fill-rule="evenodd" stroke="#000000" d="M0.6 1019.74 C0.6 1002.17 14.9 987.89 32.51 987.89 C50.11 987.89 64.41 1002.17 64.41 1019.74 C64.41 1037.31 50.11 1051.58 32.51 1051.58 C14.9 1051.58 0.6 1037.31 0.6 1019.74 Z"/>
    </g>
    <g id="path3338">
      <path stroke-width="0.14" fill="#ffffff" fill-rule="evenodd" stroke="#000000" d="M18.36 1019.41 C18.36 1011.8 24.46 1005.62 31.96 1005.62 C39.46 1005.62 45.55 1011.8 45.55 1019.41 C45.55 1027.02 39.46 1033.2 31.96 1033.2 C24.46 1033.2 18.36 1027.02 18.36 1019.41 Z"/>
    </g>
    <g id="tspan3344" transform="matrix(1.009368 0 0 0.990719 23.710746 1005.576355)">
      <text kerning="0" font-family=".AppleSystemUIFont" font-weight="700" font-size="22.34">
        <tspan x="0" y="21.6">8</tspan>
      </text>
    </g>
  </g>
</svg>
