<?xml version="1.0" encoding="UTF-8" standalone="no"?>
<!-- Created with PhotoLine 23.02 (www.pl32.com) -->
<!DOCTYPE svg PUBLIC "-//W3C//DTD SVG 1.1//EN" "http://www.w3.org/Graphics/SVG/1.1/DTD/svg11.dtd">
<svg viewBox="0 0 65 65" version="1.1" xmlns="http://www.w3.org/2000/svg" xmlns:xlink="http://www.w3.org/1999/xlink">
  <g id="layer1" transform="matrix(1 0 0 1 0 -987.362121)">
    <g id="path3336">
      <path stroke-width="0.14" fill="#0000ff" fill-rule="evenodd" stroke="#000000" d="M1.31 1019.74 C1.31 1002.55 15.4 988.6 32.74 988.6 C50.09 988.6 64.17 1002.55 64.17 1019.74 C64.17 1036.92 50.09 1050.88 32.74 1050.88 C15.4 1050.88 1.31 1036.92 1.31 1019.74 Z"/>
    </g>
    <g id="path3338">
      <path stroke-width="0.14" fill="#ffffff" fill-rule="evenodd" stroke="#000000" d="M18.81 1019.42 C18.81 1011.98 24.81 1005.93 32.2 1005.93 C39.59 1005.93 45.6 1011.98 45.6 1019.42 C45.6 1026.86 39.59 1032.9 32.2 1032.9 C24.81 1032.9 18.81 1026.86 18.81 1019.42 Z"/>
    </g>
    <g id="tspan3344" transform="matrix(1.013192 0 0 0.98698 24.075824 1005.889953)">
      <text kerning="0" font-family=".AppleSystemUIFont" font-weight="700" font-size="21.93">
        <tspan x="0" y="21.2">2</tspan>
      </text>
    </g>
  </g>
</svg>
