<?xml version="1.0" encoding="UTF-8" standalone="no"?>
<!-- Created with PhotoLine 23.02 (www.pl32.com) -->
<!DOCTYPE svg PUBLIC "-//W3C//DTD SVG 1.1//EN" "http://www.w3.org/Graphics/SVG/1.1/DTD/svg11.dtd">
<svg viewBox="0 0 65 65" version="1.1" xmlns="http://www.w3.org/2000/svg" xmlns:xlink="http://www.w3.org/1999/xlink">
  <g id="layer1" transform="matrix(1 0 0 1 0 -987.362121)">
    <g id="path3336">
      <path stroke-width="0.14" fill="#ff7f2a" fill-rule="evenodd" stroke="#000000" d="M0.84 1019.97 C0.84 1002.4 15.09 988.13 32.62 988.13 C50.16 988.13 64.41 1002.4 64.41 1019.97 C64.41 1037.55 50.16 1051.82 32.62 1051.82 C15.09 1051.82 0.84 1037.55 0.84 1019.97 Z"/>
    </g>
    <g id="path3338">
      <path stroke-width="0.14" fill="#ffffff" fill-rule="evenodd" stroke="#000000" d="M18.53 1019.65 C18.53 1012.04 24.6 1005.86 32.08 1005.86 C39.55 1005.86 45.62 1012.04 45.62 1019.65 C45.62 1027.25 39.55 1033.43 32.08 1033.43 C24.6 1033.43 18.53 1027.25 18.53 1019.65 Z"/>
    </g>
    <g id="tspan3344" transform="matrix(1.007503 0 0 0.992553 23.86096 1005.811889)">
      <text kerning="0" font-family=".AppleSystemUIFont" font-weight="700" font-size="22.3">
        <tspan x="0" y="21.56">5</tspan>
      </text>
    </g>
  </g>
</svg>
